<svg width="512" height="512" viewBox="0 0 512 512" fill="none" xmlns="http://www.w3.org/2000/svg">
<circle cx="256" cy="256" r="240" fill="#29B6F6"/>
<path d="M389.172 152.912L389.172 202.075L256.432 138.163L123.691 202.075L123.691 152.605L256.432 89L389.172 152.912Z" fill="white" fill-opacity="0.8"/>
<path d="M123.346 202.728V152.605L255.394 215.864L388.826 152.605V202.037L280.629 254.58V411.863L255.394 423.616L231.197 411.863V254.58L123.346 202.728Z" fill="white" fill-opacity="0.95"/>
<path d="M123 281.427V232.264L255.74 296.176L388.48 232.264V281.427L255.74 345.339L123 281.427Z" fill="white" fill-opacity="0.2"/>
<path d="M123 360.088V310.925L255.74 374.837L388.48 310.925V360.088L255.74 424L123 360.088Z" fill="white" fill-opacity="0.2"/>
<path d="M123 202.728V152.605L174.506 177.148L123 202.728Z" fill="#F4FCFF"/>
<path d="M388.826 152.605L388.826 202.728L337.32 177.148L388.826 152.605Z" fill="#F4FCFF"/>
</svg>
